<?xml version="1.0" standalone="no"?><!DOCTYPE svg PUBLIC "-//W3C//DTD SVG 1.1//EN" "http://www.w3.org/Graphics/SVG/1.1/DTD/svg11.dtd"><svg t="1514529928971" class="icon" style="" viewBox="0 0 1024 1024" version="1.1" xmlns="http://www.w3.org/2000/svg" p-id="28594" xmlns:xlink="http://www.w3.org/1999/xlink" width="48" height="48"><defs><style type="text/css"></style></defs><path d="M512 699c179.2 0 324.6-145.3 324.6-324.6S691.2 49.9 512 49.9 187.4 195.2 187.4 374.5 332.8 699 512 699z m0 50c-206.8 0-374.5-167.7-374.5-374.5S305.2 0 512 0s374.5 167.7 374.5 374.5S718.8 749 512 749z" p-id="28595" fill="#373737"></path><path d="M512 374.5m-149.8 0a149.8 149.8 0 1 0 299.6 0 149.8 149.8 0 1 0-299.6 0Z" p-id="28596" fill="#373737"></path><path d="M805.6 1024V610.2h-50v321.6l-263-171.7L268.4 917V615.5h-50v397.4l275.2-192.5z" p-id="28597" fill="#373737"></path></svg>