<?xml version="1.0" standalone="no"?><!DOCTYPE svg PUBLIC "-//W3C//DTD SVG 1.1//EN" "http://www.w3.org/Graphics/SVG/1.1/DTD/svg11.dtd"><svg t="1515382276143" class="icon" style="" viewBox="0 0 1024 1024" version="1.1" xmlns="http://www.w3.org/2000/svg" p-id="5834" xmlns:xlink="http://www.w3.org/1999/xlink" width="128" height="128"><defs><style type="text/css"></style></defs><path d="M673.66144 128 351.61856 128C330.62144 128 313.6 145.02144 313.6 166.01856l0 659.96288C313.6 846.97856 330.62144 864 351.61856 864l322.0416 0C694.65856 864 711.68 846.97856 711.68 825.98144L711.68 166.01856C711.68 145.02144 694.65856 128 673.66144 128zM465.92 165.12l94.72 0c2.82752 0 5.12 2.29248 5.12 5.12 0 2.82752-2.29248 5.12-5.12 5.12l-94.72 0c-2.82752 0-5.12-2.29248-5.12-5.12C460.8 167.41248 463.09248 165.12 465.92 165.12zM513.28 844.8c-21.20832 0-38.4-17.19168-38.4-38.4s17.19168-38.4 38.4-38.4 38.4 17.19168 38.4 38.4S534.48832 844.8 513.28 844.8zM677.12 741.12c0 3.53408-2.86592 6.4-6.4 6.4L357.12 747.52c-3.53408 0-6.4-2.86592-6.4-6.4L350.72 218.88c0-3.53408 2.86592-6.4 6.4-6.4l313.6 0c3.53408 0 6.4 2.86592 6.4 6.4L677.12 741.12z" p-id="5835" fill="#373737"></path><path d="M455.73632 354.95296l11.10272-2.97472c15.64544-4.192 32.26752 4.33536 36.45952 19.97952l22.14656 82.65344c3.85536 14.38976-4.93056 29.51424-17.7536 34.90048l6.63936 24.77824c27.44064-9.39776 42.57664-38.09408 35.072-66.09792l-22.14656-82.65344c-7.83744-29.24928-37.9456-46.68672-67.19488-38.84928l-11.10272 2.97472c-29.24928 7.83744-46.67008 38.0096-38.83264 67.26016l22.14656 82.65344c5.18144 19.33696 20.36992 33.43104 37.49504 38.7776l-9.98912-37.28128c-0.70144-2.61888-1.4464-5.39648-2.21696-8.27264l-22.14656-82.65344C431.22432 374.5024 440.0896 359.14496 455.73632 354.95296z" p-id="5836" fill="#373737"></path><path d="M555.43936 433.44896l9.98912 37.28128c0.70144 2.61888 1.4464 5.39648 2.21696 8.27264l22.14656 82.65344c4.192 15.64544-4.64768 31.09888-20.29312 35.29088l-11.10272 2.97472c-15.64544 4.192-32.2944-4.43136-36.4864-20.0768l-22.14656-82.65344c-3.85536-14.38976 4.93056-29.51424 17.7536-34.90048l-6.63936-24.77824c-27.44064 9.39776-42.57664 38.09408-35.072 66.09792l22.14656 82.65344c7.83744 29.24928 37.9712 46.784 67.22048 38.94656l11.10272-2.97472c29.24928-7.83744 46.6432-38.10816 38.80576-67.35744l-22.14656-82.65344C587.75296 452.8896 572.56448 438.79552 555.43936 433.44896z" p-id="5837" fill="#373737"></path></svg>