<?xml version="1.0" standalone="no"?><!DOCTYPE svg PUBLIC "-//W3C//DTD SVG 1.1//EN" "http://www.w3.org/Graphics/SVG/1.1/DTD/svg11.dtd"><svg t="1514529877331" class="icon" style="" viewBox="0 0 1024 1024" version="1.1" xmlns="http://www.w3.org/2000/svg" p-id="24943" xmlns:xlink="http://www.w3.org/1999/xlink" width="48" height="48"><defs><style type="text/css"></style></defs><path d="M674.37504 69.888a20.224 20.224 0 0 0-28.48 0L6.08704 709.76a20.224 20.224 0 0 0 0 28.544l124.416 124.416a56.128 56.128 0 0 0 34.432 14.272h398.656c11.072 0 26.56-6.4 34.432-14.272l420.288-420.352a20.224 20.224 0 0 0 0-28.544l-343.936-343.936zM558.47104 786.816a56.128 56.128 0 0 1-34.496 14.272H215.36704a56.128 56.128 0 0 1-34.432-14.272l-58.624-58.688a20.224 20.224 0 0 1 0-28.544l234.496-234.56a20.224 20.224 0 0 1 28.544 0l233.152 233.216a20.224 20.224 0 0 1 0 28.48l-60.032 60.096z" fill="#373737" p-id="24944"></path></svg>