<?xml version="1.0" standalone="no"?><!DOCTYPE svg PUBLIC "-//W3C//DTD SVG 1.1//EN" "http://www.w3.org/Graphics/SVG/1.1/DTD/svg11.dtd"><svg t="1514528641186" class="icon" style="" viewBox="0 0 1024 1024" version="1.1" xmlns="http://www.w3.org/2000/svg" p-id="19949" xmlns:xlink="http://www.w3.org/1999/xlink" width="48" height="48"><defs><style type="text/css"></style></defs><path d="M512 64C264.704 64 64 264.704 64 512c0 247.68 200.704 448 448 448 247.68 0 448-200.32 448-448 0-247.296-200.32-448-448-448z m-61.44 606.464l26.88-124.416c4.48-19.84 5.504-27.904 0-27.904-7.04 0-37.504 13.824-55.424 27.52l-11.904-21.76C467.2 470.4 532.864 439.04 561.024 439.04c23.424 0 27.264 31.36 15.744 79.104L545.664 648.96c-5.504 23.424-2.944 30.976 2.56 30.976 6.784 0 30.08-9.344 52.48-29.44l13.44 19.84c-55.424 62.336-115.84 86.4-139.52 86.4-23.424 0.128-40.32-15.872-24.064-86.272zM593.664 312.32c0 29.696-21.504 57.6-57.6 57.6-30.464 0-44.8-17.28-43.904-45.824 0-23.68 17.664-56.704 59.904-56.704 32.256 0.128 41.6 20.864 41.6 44.928z" p-id="19950" fill="#373737"></path></svg>