<?xml version="1.0" standalone="no"?><!DOCTYPE svg PUBLIC "-//W3C//DTD SVG 1.1//EN" "http://www.w3.org/Graphics/SVG/1.1/DTD/svg11.dtd"><svg t="1515057741193" class="icon" style="" viewBox="0 0 1024 1024" version="1.1" xmlns="http://www.w3.org/2000/svg" p-id="3572" xmlns:xlink="http://www.w3.org/1999/xlink" width="32" height="32"><defs><style type="text/css"></style></defs><path d="M318.003 90.829c12.758-10.192 31.41-9.386 43.227 2.432 12.691 12.692 12.69 33.268 0 45.958a32.368 32.368 0 0 1-12.269 7.709c-53.375 25.846-101.519 64.437-139.462 115.087-61.471 82.081-87.296 183.201-72.702 284.737 14.558 101.537 67.806 191.295 149.886 252.736 169.535 127.039 410.688 92.385 537.6-77.119 33.217-44.387 56-94.113 67.648-147.842 3.777-17.281 20.896-28.256 38.049-24.512 17.277 3.742 28.256 20.799 24.512 38.049-13.664 62.783-40.225 120.832-78.977 172.672-71.713 95.744-176.479 157.887-294.978 174.848a449.223 449.223 0 0 1-64.605 4.67c-96.161 0.002-189.346-30.814-267.681-89.471-95.743-71.713-157.856-176.48-174.849-294.912-16.992-118.464 13.152-236.449 84.864-332.224 43.557-58.163 98.647-102.684 159.737-132.818z" fill="#8a8a8a" p-id="3573"></path></svg>