<?xml version="1.0" standalone="no"?><!DOCTYPE svg PUBLIC "-//W3C//DTD SVG 1.1//EN" "http://www.w3.org/Graphics/SVG/1.1/DTD/svg11.dtd"><svg t="1515404191166" class="icon" style="" viewBox="0 0 1040 1024" version="1.1" xmlns="http://www.w3.org/2000/svg" p-id="4130" xmlns:xlink="http://www.w3.org/1999/xlink" width="130" height="128"><defs><style type="text/css"></style></defs><path d="M202.74868 940.047959c-4.372587 0-8.776897-1.061169-12.794397-3.202948-9.287527-4.958942-14.886035-14.839986-14.350846-25.359574l5.389754-106.680694-57.133232 0c-68.095911 0-123.499755-57.449433-123.499755-128.065747L0.360204 212.017788c0-70.616314 55.403844-128.065747 123.499755-128.065747l776.227893 0c68.103074 0 123.507942 57.449433 123.507942 128.065747l0 462.718597c0 38.421055-14.802124 72.825632-41.676192 96.857978-23.587208 21.104667-55.508221 33.210379-87.568405 33.210379L393.048841 804.804742 219.014132 934.651043C214.224036 938.224428 208.502731 940.047959 202.74868 940.047959M123.860982 138.325415c-38.109969 0-69.12638 33.062-69.12638 73.692373l0 464.720184c0 40.630373 31.016411 73.685209 69.12638 73.685209l85.724407 0c7.450692 0 14.57495 3.053546 19.703761 8.450463 5.136997 5.405103 7.828292 12.669554 7.450692 20.104897l-3.91517 77.523631 134.939295-100.682074c4.699022-3.50687 10.399861-5.396917 16.263405-5.396917l510.316661 0c30.096459 0 74.871221-20.156062 74.871221-75.686796l0-462.718597c0-40.630373-31.008224-73.685209-69.12638-73.685209L123.860982 138.332579 123.860982 138.325415zM123.860982 138.325415" p-id="4131"></path><path d="M357.428575 446.00903c0 26.938536-20.926612 48.7851-46.739511 48.7851-25.810852 0-46.731324-21.846564-46.731324-48.7851 0-26.945699 20.920472-48.7851 46.731324-48.7851C336.501964 397.224953 357.428575 419.063331 357.428575 446.00903" p-id="4132"></path><path d="M558.714951 446.00903c0 26.938536-20.927635 48.7851-46.739511 48.7851-25.812899 0-46.739511-21.846564-46.739511-48.7851 0-26.945699 20.926612-48.7851 46.739511-48.7851C537.786293 397.224953 558.714951 419.063331 558.714951 446.00903" p-id="4133"></path><path d="M759.998257 446.00903c0 26.938536-20.918425 48.7851-46.731324 48.7851s-46.739511-21.846564-46.739511-48.7851c0-26.945699 20.926612-48.7851 46.739511-48.7851S759.998257 419.063331 759.998257 446.00903" p-id="4134"></path></svg>