<?xml version="1.0" standalone="no"?><!DOCTYPE svg PUBLIC "-//W3C//DTD SVG 1.1//EN" "http://www.w3.org/Graphics/SVG/1.1/DTD/svg11.dtd"><svg t="1514359131331" class="icon" style="" viewBox="0 0 1024 1024" version="1.1" xmlns="http://www.w3.org/2000/svg" p-id="2885" xmlns:xlink="http://www.w3.org/1999/xlink" width="48" height="48"><defs><style type="text/css"></style></defs><path d="M512 448c-35.4 0-64 28.6-64 64s28.6 64 64 64c35.4 0 64-28.6 64-64S547.4 448 512 448L512 448z" p-id="2886" fill="#bfbfbf"></path><path d="M256.8 448c-35.4 0-64 28.6-64 64s28.6 64 64 64c35.4 0 64-28.6 64-64S292 448 256.8 448L256.8 448z" p-id="2887" fill="#bfbfbf"></path><path d="M768 448c-35.4 0-64 28.6-64 64s28.6 64 64 64 64-28.6 64-64S803.4 448 768 448L768 448z" p-id="2888" fill="#bfbfbf"></path></svg>