<?xml version="1.0" standalone="no"?><!DOCTYPE svg PUBLIC "-//W3C//DTD SVG 1.1//EN" "http://www.w3.org/Graphics/SVG/1.1/DTD/svg11.dtd"><svg t="1515217353200" class="icon" style="" viewBox="0 0 1024 1024" version="1.1" xmlns="http://www.w3.org/2000/svg" p-id="2427" xmlns:xlink="http://www.w3.org/1999/xlink" width="32" height="32"><defs><style type="text/css"></style></defs><path d="M512 62.389956c-248.322645 0-449.610044 201.287399-449.610044 449.610044s201.287399 449.610044 449.610044 449.610044c248.322645 0 449.610044-201.287399 449.610044-449.610044S760.321622 62.389956 512 62.389956zM512 891.358027c-209.520921 0-379.359051-169.837106-379.359051-379.359051s169.837106-379.359051 379.359051-379.359051c209.520921 0 379.359051 169.837106 379.359051 379.359051S721.520921 891.358027 512 891.358027z" p-id="2428" fill="#373737"></path><path d="M512.299829 358.997304c-30.871101 0-56.501852 16.505929-56.501852 40.599673l0 84.302011L567.816237 483.898988l0.384763-84.302011C568.201 375.504256 543.202653 358.997304 512.299829 358.997304z" p-id="2429" fill="#373737"></path><path d="M651.954519 483.898988l-27.552519 0 0.080841-81.174787c0-48.296983-50.16247-87.429235-112.183012-87.429235-61.936631 0-112.180965 39.133276-112.180965 87.429235l-0.521886 81.174787-28.157293 0c-15.503089 0-27.440979 12.499685-27.440979 24.588001l-0.603751 175.62902c0 12.075013 13.145391 24.588001 28.64848 24.588001l280.568047 0c15.449877 0 27.386744-12.512988 27.386744-24.588001l0.604774-175.62902C680.604022 496.398674 667.404396 483.898988 651.954519 483.898988zM567.816237 483.898988 455.799 483.898988l0-84.302011c0-24.093744 25.63075-40.599673 56.501852-40.599673 30.901801 0 55.901171 16.505929 55.901171 40.599673L567.816237 483.898988z" p-id="2430" fill="#373737"></path></svg>