<?xml version="1.0" standalone="no"?><!DOCTYPE svg PUBLIC "-//W3C//DTD SVG 1.1//EN" "http://www.w3.org/Graphics/SVG/1.1/DTD/svg11.dtd"><svg t="1514439442294" class="icon" style="" viewBox="0 0 1024 1024" version="1.1" xmlns="http://www.w3.org/2000/svg" p-id="3808" xmlns:xlink="http://www.w3.org/1999/xlink" width="48" height="48"><defs><style type="text/css"></style></defs><path d="M432.6 706.3c-160.1 0-290-129.5-290-289.1s129.9-289 290-289 289.9 129.5 289.9 289c0 159.7-129.8 289.1-289.9 289.1z m502.5 199L689.4 660.4c60.3-63.3 97.5-148.7 97.5-243 0-195-158.6-353.2-354.2-353.2-195.8 0-354.4 158.1-354.4 353.2 0 195.2 158.6 353.3 354.4 353.3 77.8 0 149.6-25.4 208-67.8l248.6 247.9c12.7 12.5 33 12.5 45.7 0 12.6-12.7 12.6-32.8 0.1-45.5z" fill="#515151" p-id="3809"></path></svg>