<?xml version="1.0" standalone="no"?><!DOCTYPE svg PUBLIC "-//W3C//DTD SVG 1.1//EN" "http://www.w3.org/Graphics/SVG/1.1/DTD/svg11.dtd"><svg t="1514281736869" class="icon" style="" viewBox="0 0 1024 1024" version="1.1" xmlns="http://www.w3.org/2000/svg" p-id="3763" xmlns:xlink="http://www.w3.org/1999/xlink" width="48" height="48"><defs><style type="text/css"></style></defs><path d="M807.084669 371.4448c85.283362 0 154.525376-69.249177 154.525376-154.529469 0-85.096097-69.242014-154.525376-154.525376-154.525376s-154.539702 69.429279-154.539702 154.525376c0 7.658424 0.717338 14.954597 1.785669 22.257933L329.428871 364.141464c-28.29851-29.9051-68.180845-48.773843-112.51354-48.773843-85.085864 0-154.525376 69.249177-154.525376 154.525376s69.439512 154.532539 154.525376 154.532539c33.289174 0 64.083527-10.68434 89.198531-28.484751l220.211401 146.691967c-9.074679 19.766183-14.226003 41.481763-14.226003 64.448848 0 85.276199 69.234851 154.529469 154.51105 154.529469 85.290525 0 154.539702-69.25327 154.539702-154.529469S751.899812 652.5552 666.609287 652.5552c-41.99751 0-80.102363 16.912182-107.87387 44.149523L345.989035 554.817178c16.025998-24.394596 25.634844-53.589522 25.634844-84.924181 0-20.292162-4.098341-39.692001-11.211343-57.500599l311.904753-119.995955C698.844455 339.574952 749.228983 371.4448 807.084669 371.4448L807.084669 371.4448zM216.915331 568.165184c-54.123688 0-98.265024-43.969421-98.265024-98.272187 0-54.298673 44.141336-98.448196 98.265024-98.448196 54.30686 0 98.448196 44.149523 98.448196 98.448196C315.363528 524.19474 271.221168 568.165184 216.915331 568.165184L216.915331 568.165184zM666.609287 708.808388c54.123688 0 98.280374 44.149523 98.280374 98.272187 0 54.298673-44.156686 98.455359-98.280374 98.455359-54.284347 0-98.441033-44.156686-98.441033-98.455359C568.168254 752.957911 612.32494 708.808388 666.609287 708.808388L666.609287 708.808388zM807.084669 118.643144c54.298673 0 98.455359 44.152593 98.455359 98.272187 0 54.295604-44.156686 98.452289-98.455359 98.452289-54.116525 0-98.265024-44.156686-98.265024-98.452289C708.819644 162.795736 752.968144 118.643144 807.084669 118.643144L807.084669 118.643144z" p-id="3764" fill="#8a8a8a"></path></svg>