<?xml version="1.0" standalone="no"?><!DOCTYPE svg PUBLIC "-//W3C//DTD SVG 1.1//EN" "http://www.w3.org/Graphics/SVG/1.1/DTD/svg11.dtd"><svg t="1514526139614" class="icon" style="" viewBox="0 0 1024 1024" version="1.1" xmlns="http://www.w3.org/2000/svg" p-id="5603" xmlns:xlink="http://www.w3.org/1999/xlink" width="48" height="48"><defs><style type="text/css"></style></defs><path d="M225.8 431h36.8c15.4 0 28 12.5 28 28.1 0 15.4-12.4 28.1-28 28.1h-36.8c-15.4 0-28-12.5-28-28.1 0-15.5 12.5-28.1 28-28.1z m36.6 270.5c-62.4 0-113.1 50.8-113.1 113.4 0 62.6 50.7 113.4 113.1 113.4s113.1-50.8 113.1-113.4c0-62.6-50.6-113.4-113.1-113.4z m478.8 0c-62.3 0-113.1 50.8-113.1 113.4 0 62.6 50.7 113.4 113.1 113.4s113.1-50.8 113.1-113.4c0-62.6-50.6-113.4-113.1-113.4zM960 616.6V146.7c0-15.6-13.9-28.1-30.8-28.1H384.3c-17.1 0-30.8 12.6-30.8 28.1v66.9H266c-8 0-15.9 3-21.4 8.1L75.1 380c-5.5 5.5-8.7 12.5-8.7 19.9v213.2H66v145.1c0 15.6 12.6 28.1 28 28.1h2.2c13.6-80 83.1-141 166.4-141s152.7 61.1 166.3 141H575c13.6-80 83.1-141 166.4-141 83.3 0 152.7 61.1 166.3 141H932c15.6 0 28-12.6 28-28.1V616.6z" p-id="5604" fill="#373737"></path></svg>