<?xml version="1.0" standalone="no"?><!DOCTYPE svg PUBLIC "-//W3C//DTD SVG 1.1//EN" "http://www.w3.org/Graphics/SVG/1.1/DTD/svg11.dtd"><svg t="1514526050038" class="icon" style="" viewBox="0 0 1024 1024" version="1.1" xmlns="http://www.w3.org/2000/svg" p-id="1863" xmlns:xlink="http://www.w3.org/1999/xlink" width="48" height="48"><defs><style type="text/css"></style></defs><path d="M832 1023.962074h-640A191.943111 191.943111 0 0 1 0 831.962074V191.981037A191.924148 191.924148 0 0 1 192 0h384c83.437037 0 153.846519 53.532444 180.299852 128h75.700148A191.924148 191.924148 0 0 1 1024 320V831.981037a191.924148 191.924148 0 0 1-192 191.981037z m-256-959.962074h-384c-65.34637 0-118.765037 49.227852-126.388148 112.488296C99.460741 146.697481 143.397926 128 192 128H686.26963c-22.167704-38.172444-63.013926-64-110.26963-64z m410.661926 351.971556H613.338074c-20.707556 0-37.338074 14.279111-37.338074 32.009481v192c0 17.73037 16.630519 32.009481 37.338074 32.009482h373.342815c20.707556 0 37.338074-14.279111 37.338074-32.009482V447.981037c-0.018963-17.73037-16.668444-32.009481-37.357037-32.009481zM640 511.981037h64v64H640v-64z" fill="#373737" p-id="1864"></path></svg>