<?xml version="1.0" standalone="no"?><!DOCTYPE svg PUBLIC "-//W3C//DTD SVG 1.1//EN" "http://www.w3.org/Graphics/SVG/1.1/DTD/svg11.dtd"><svg t="1514526924274" class="icon" style="" viewBox="0 0 1024 1024" version="1.1" xmlns="http://www.w3.org/2000/svg" p-id="13803" xmlns:xlink="http://www.w3.org/1999/xlink" width="48" height="48"><defs><style type="text/css"></style></defs><path d="M93.1 162.9h837.8c25.7 0 46.5-20.8 46.5-46.5s-20.8-46.5-46.5-46.5H93.1c-25.7 0-46.5 20.8-46.5 46.5s20.8 46.5 46.5 46.5zM977.5 209.5H674.9v378.8c0 17.9-19.3 29.1-34.8 20.2l-116.5-66.6c-7.2-4.1-15.9-4.1-23.1 0L384 608.5c-15.5 8.9-34.8-2.3-34.8-20.2V209.5H46.5C20.8 209.5 0 230.3 0 256v581.8c0 64.3 52.1 116.4 116.4 116.4h791.3c64.3 0 116.4-52.1 116.4-116.4V256c-0.1-25.7-20.9-46.5-46.6-46.5zM205.1 372.4h-88.7c-25.7 0-46.5-20.8-46.5-46.5s20.8-46.5 46.5-46.5h88.7c25.7 0 46.5 20.8 46.5 46.5 0 25.6-20.8 46.5-46.5 46.5z" p-id="13804" fill="#373737"></path></svg>