<?xml version="1.0" standalone="no"?><!DOCTYPE svg PUBLIC "-//W3C//DTD SVG 1.1//EN" "http://www.w3.org/Graphics/SVG/1.1/DTD/svg11.dtd"><svg t="1515217871805" class="icon" style="" viewBox="0 0 1024 1024" version="1.1" xmlns="http://www.w3.org/2000/svg" p-id="6367" xmlns:xlink="http://www.w3.org/1999/xlink" width="128" height="128"><defs><style type="text/css"></style></defs><path d="M444.6 756.3H153.4V165.1h453.4v329.2c20.1-8.8 41.4-15.1 63.7-18.9V158.5S677.6 69 591.1 64H165.2s-75.8-4.1-75.7 78.9V866s0 73.5 71.9 78.9h373.5c-52.5-46.8-86.6-113.7-90.3-188.6z m-64.5 120c-19.7 0-35.6-16.6-35.6-37.1s15.9-37.1 35.6-37.1c19.7 0 35.6 16.6 35.6 37.1 0.1 20.5-15.9 37.1-35.6 37.1z m336.3-350.7c-120.4 0-218 97.3-218 217.2 0 120 97.6 217.2 218 217.2s218-97.3 218-217.2c0-120-97.6-217.2-218-217.2z m38.8 344.8c0 21.2-17.2 38.4-38.4 38.4s-38.4-17.2-38.4-38.4v-128c0-21.2 17.2-38.4 38.4-38.4s38.4 17.2 38.4 38.4v128z m-38.4-217.6c-21.2 0-38.4-17.2-38.4-38.4s17.2-38.4 38.4-38.4 38.4 17.2 38.4 38.4-17.2 38.4-38.4 38.4z" p-id="6368" fill="#373737"></path></svg>